# xmcd
#
# Track frame offsets: 
#        150
#        11776
#        17977
#        27795
#        41387
#        63398
#        74530
#        80355
#        90509
#        102313
#        108077
#        118592
#        125286
#        132352
#        143981
#        149944
#        156507
#        162517
#        169360
#        175914
#        186169
#        203632
#
# Disc length: 2947 seconds
#
# Revision: 0
# Processed by: cddbd v1.5.2PL0 Copyright (c) Steve Scherf et al.
# Submitted via: ExactAudioCopy v0.99pb4
#
DISCID=3f0b8116
DTITLE=Большой Детский Хор - Зарубежная классика и народные песни
DYEAR=2003
DGENRE=Retro
TTITLE0=Канционетта
TTITLE1=Танцуем и поём
TTITLE2=Магнификат
TTITLE3=Ода миру
TTITLE4=Аве Мария (Шуберт)
TTITLE5=Баркаролла
TTITLE6=Приветственная
TTITLE7=Аве мария (Кодай)
TTITLE8=Ты река ль моя реченька
TTITLE9=Во лузях
TTITLE10=На горе, горе
TTITLE11=Дрема
TTITLE12=Все мы песни перепели
TTITLE13=Голуб-голубочек
TTITLE14=Белый ключ-колодезь
TTITLE15=Во зелёном во бору
TTITLE16=Щедрик
TTITLE17=Ой реченька, реченька
TTITLE18=Хоровод
TTITLE19=Ручеек
TTITLE20=Мчит Арагви вдаль
TTITLE21=Песня крестьянина-косаря
EXTD=
EXTT0=
EXTT1=
EXTT2=
EXTT3=
EXTT4=
EXTT5=
EXTT6=
EXTT7=
EXTT8=
EXTT9=
EXTT10=
EXTT11=
EXTT12=
EXTT13=
EXTT14=
EXTT15=
EXTT16=
EXTT17=
EXTT18=
EXTT19=
EXTT20=
EXTT21=
PLAYORDER=
